<?xml version="1.0" encoding="UTF-8" standalone="no"?>
<!-- Created with Inkscape (http://www.inkscape.org/) -->
<svg
   xmlns:dc="http://purl.org/dc/elements/1.1/"
   xmlns:cc="http://creativecommons.org/ns#"
   xmlns:rdf="http://www.w3.org/1999/02/22-rdf-syntax-ns#"
   xmlns:svg="http://www.w3.org/2000/svg"
   xmlns="http://www.w3.org/2000/svg"
   xmlns:sodipodi="http://sodipodi.sourceforge.net/DTD/sodipodi-0.dtd"
   xmlns:inkscape="http://www.inkscape.org/namespaces/inkscape"
   width="750.61829"
   height="536.87714"
   id="svg2"
   sodipodi:version="0.32"
   inkscape:version="0.46"
   sodipodi:docname="xbox360.svg"
   inkscape:output_extension="org.inkscape.output.svg.inkscape"
   version="1.0">
  <defs
     id="defs4">
    <inkscape:perspective
       sodipodi:type="inkscape:persp3d"
       inkscape:vp_x="0 : 526.18109 : 1"
       inkscape:vp_y="6.1230318e-14 : 1000 : 0"
       inkscape:vp_z="744.09448 : 526.18109 : 1"
       inkscape:persp3d-origin="372.04724 : 350.78739 : 1"
       id="perspective10" />
    <inkscape:perspective
       id="perspective2390"
       inkscape:persp3d-origin="372.04724 : 350.78739 : 1"
       inkscape:vp_z="744.09448 : 526.18109 : 1"
       inkscape:vp_y="0 : 1000 : 0"
       inkscape:vp_x="0 : 526.18109 : 1"
       sodipodi:type="inkscape:persp3d" />
    <inkscape:perspective
       id="perspective3475"
       inkscape:persp3d-origin="372.04724 : 350.78739 : 1"
       inkscape:vp_z="744.09448 : 526.18109 : 1"
       inkscape:vp_y="0 : 1000 : 0"
       inkscape:vp_x="0 : 526.18109 : 1"
       sodipodi:type="inkscape:persp3d" />
  </defs>
  <sodipodi:namedview
     id="base"
     pagecolor="#ffffff"
     bordercolor="#666666"
     borderopacity="1.0"
     gridtolerance="10000"
     guidetolerance="10"
     objecttolerance="10"
     inkscape:pageopacity="0.0"
     inkscape:pageshadow="2"
     inkscape:zoom="0.71245353"
     inkscape:cx="375.15625"
     inkscape:cy="523.57156"
     inkscape:document-units="px"
     inkscape:current-layer="layer1"
     showgrid="false"
     inkscape:window-width="1678"
     inkscape:window-height="980"
     inkscape:window-x="0"
     inkscape:window-y="25"
     showguides="true"
     inkscape:guide-bbox="true" />
  <metadata
     id="metadata7">
    <rdf:RDF>
      <cc:Work
         rdf:about="">
        <dc:format>image/svg+xml</dc:format>
        <dc:type
           rdf:resource="http://purl.org/dc/dcmitype/StillImage" />
      </cc:Work>
    </rdf:RDF>
  </metadata>
  <g
     inkscape:label="Layer 1"
     inkscape:groupmode="layer"
     id="layer1"
     transform="translate(0.15288,-260.35206)">
    <g
       id="g4442"
       transform="matrix(0.5752286,0,0,0.5752286,161.90411,275.5957)"
       style="stroke:#000000;stroke-width:2;stroke-miterlimit:4;stroke-dasharray:none;stroke-opacity:1">
      <rect
         style="fill:#4d4d4d;fill-opacity:1;stroke:#000000;stroke-width:2;stroke-miterlimit:4;stroke-dasharray:none;stroke-opacity:1"
         id="rect4436"
         width="45.344299"
         height="27.532085"
         x="390.84552"
         y="630.43866"
         ry="4.973381"
         rx="4.973381" />
      <rect
         rx="4.973381"
         ry="4.973381"
         y="630.43866"
         x="305.26193"
         height="27.532085"
         width="45.344299"
         id="rect4438"
         style="fill:#4d4d4d;fill-opacity:1;stroke:#000000;stroke-width:2;stroke-miterlimit:4;stroke-dasharray:none;stroke-opacity:1" />
      <rect
         style="fill:#4d4d4d;fill-opacity:1;stroke:#000000;stroke-width:2;stroke-miterlimit:4;stroke-dasharray:none;stroke-opacity:1"
         id="rect4440"
         width="32.910625"
         height="27.325605"
         x="354.27057"
         y="630.23145"
         ry="4.973381"
         rx="4.973381" />
    </g>
    <path
       sodipodi:nodetypes="cssscc"
       id="path3365"
       d="M 655.50745,318.60794 C 655.28894,317.5154 651.35577,300.47167 650.91876,297.63105 C 650.48174,294.79043 649.82621,293.26086 646.33006,290.85726 C 613.51647,268.29793 575.1238,257.40679 537.07541,263.5436 C 530.30162,264.63614 521.56124,281.67987 521.56124,281.67987 L 655.50745,318.60794 z"
       style="fill:#d8d8d8;fill-opacity:1;fill-rule:evenodd;stroke:#000000;stroke-width:3;stroke-linecap:butt;stroke-linejoin:miter;stroke-miterlimit:4;stroke-dasharray:none;stroke-opacity:1" />
    <path
       style="fill:#d8d8d8;fill-opacity:1;fill-rule:evenodd;stroke:#000000;stroke-width:3;stroke-linecap:butt;stroke-linejoin:miter;stroke-miterlimit:4;stroke-dasharray:none;stroke-opacity:1"
       d="M 97.673659,318.60794 C 97.892168,317.5154 101.82534,300.47167 102.26235,297.63105 C 102.69937,294.79043 103.3549,293.26086 106.85105,290.85726 C 139.66464,268.29793 178.05731,257.40679 216.1057,263.5436 C 222.87949,264.63614 231.61987,281.67987 231.61987,281.67987 L 97.673659,318.60794 z"
       id="path3352"
       sodipodi:nodetypes="cssscc" />
    <path
       style="fill:#cccccc;fill-opacity:1;fill-rule:evenodd;stroke:none;stroke-width:3;stroke-linecap:butt;stroke-linejoin:miter;stroke-miterlimit:4;stroke-dasharray:none;stroke-opacity:1"
       d="M 692.40625,795.6875 C 729.24632,796.78087 745.21397,776.84954 748.8125,678.25 C 752.58374,574.91798 685.51396,378.56055 665.84375,329.03125 C 646.1735,279.50196 547.13046,253.20593 502.1875,281.53125 C 465.20101,304.842 424.68118,307.90625 375.15625,307.90625 C 325.63133,307.90625 285.14275,304.842 248.15625,281.53125 C 235.51605,273.56475 218.57513,269.89652 200.34375,269.875 C 153.75246,269.82 98.606739,293.43208 84.46875,329.03125 C 64.798509,378.56054 -2.2712417,574.91797 1.5,678.25 C 5.0785642,776.30266 20.906856,796.56763 57.3125,795.70312 C 141.78831,786.65213 150.45828,738.83858 207.40625,694.09375 C 260.20364,652.61006 297.18742,648.83525 374.875,650.34375 C 452.56257,648.83527 489.51511,652.61009 542.3125,694.09375 C 599.26048,738.83855 607.93044,786.63651 692.40625,795.6875 z"
       id="path3354"
       sodipodi:nodetypes="cssssscsscscsc" />
    <path
       style="fill:#808080;fill-opacity:1;fill-rule:evenodd;stroke:none;stroke-width:3;stroke-linecap:butt;stroke-linejoin:miter;stroke-miterlimit:4;stroke-dasharray:none;stroke-opacity:1"
       d="M 376.55538,626.9578 C 306.48411,626.95781 270.99132,628.49411 235.21163,648.0828 C 160.64529,688.90646 145.67483,753.41543 66.61787,795.67655 C 143.80716,784.49429 153.68236,737.39373 208.80537,694.0828 C 261.60277,652.59914 298.58655,648.8243 376.27413,650.3328 C 453.9617,648.82429 490.91424,652.59914 543.71163,694.0828 C 599.02621,737.54424 608.78338,784.83136 686.71163,795.80155 C 607.46105,753.54261 592.53505,688.94455 517.89913,648.0828 C 482.11944,628.49411 446.62665,626.9578 376.55538,626.9578 z"
       id="path3191" />
    <path
       sodipodi:type="arc"
       style="opacity:1;fill:#d4d4d4;fill-opacity:1;fill-rule:evenodd;stroke:none;stroke-width:0.92916417;stroke-linecap:round;stroke-linejoin:round;stroke-miterlimit:4;stroke-dasharray:none;stroke-opacity:1"
       id="path3339"
       sodipodi:cx="160.65491"
       sodipodi:cy="389.37787"
       sodipodi:rx="68.636604"
       sodipodi:ry="68.636604"
       d="M 229.29151,389.37787 A 68.636604,68.636604 0 1 1 92.018303,389.37787 A 68.636604,68.636604 0 1 1 229.29151,389.37787 z"
       transform="matrix(1.3186813,0,0,1.3571428,273.88333,-12.726922)" />
    <path
       sodipodi:type="arc"
       style="opacity:1;fill:#d4d4d4;fill-opacity:1;fill-rule:evenodd;stroke:none;stroke-width:0.92916417;stroke-linecap:round;stroke-linejoin:round;stroke-miterlimit:4;stroke-dasharray:none;stroke-opacity:1"
       id="path3335"
       sodipodi:cx="160.65491"
       sodipodi:cy="389.37787"
       sodipodi:rx="68.636604"
       sodipodi:ry="68.636604"
       d="M 229.29151,389.37787 A 68.636604,68.636604 0 1 1 92.018303,389.37787 A 68.636604,68.636604 0 1 1 229.29151,389.37787 z"
       transform="matrix(1.1153846,0,0,1.0384615,-16.651483,-22.141431)" />
    <path
       transform="matrix(1.3186813,0,0,1.3571428,52.888559,-12.726922)"
       d="M 229.29151,389.37787 A 68.636604,68.636604 0 1 1 92.018303,389.37787 A 68.636604,68.636604 0 1 1 229.29151,389.37787 z"
       sodipodi:ry="68.636604"
       sodipodi:rx="68.636604"
       sodipodi:cy="389.37787"
       sodipodi:cx="160.65491"
       id="path3337"
       style="opacity:1;fill:#d4d4d4;fill-opacity:1;fill-rule:evenodd;stroke:none;stroke-width:0.92916417;stroke-linecap:round;stroke-linejoin:round;stroke-miterlimit:4;stroke-dasharray:none;stroke-opacity:1"
       sodipodi:type="arc" />
    <path
       sodipodi:type="arc"
       style="opacity:1;fill:#333333;fill-opacity:1;fill-rule:evenodd;stroke:#000000;stroke-width:2.64638782;stroke-linecap:round;stroke-linejoin:round;stroke-miterlimit:4;stroke-dasharray:none;stroke-opacity:1"
       id="path3249"
       sodipodi:cx="211.80083"
       sodipodi:cy="443.66501"
       sodipodi:rx="53.410645"
       sodipodi:ry="53.410645"
       d="M 265.21147,443.66501 A 53.410645,53.410645 0 1 1 158.39018,443.66501 A 53.410645,53.410645 0 1 1 265.21147,443.66501 z"
       transform="matrix(1.1336207,0,0,1.1336207,25.800327,-1.4980324)" />
    <path
       id="path3253"
       style="fill:#3a3a3a;fill-opacity:1;fill-rule:evenodd;stroke:#515151;stroke-width:3.00000024;stroke-linecap:round;stroke-linejoin:round;stroke-miterlimit:4;stroke-opacity:1"
       d="M 249.60884,556.05516 C 249.60884,561.4302 282.19542,561.01814 282.19542,556.05516 C 282.19542,536.00091 298.47109,519.72501 318.52506,519.72501 C 323.77385,520.88166 325.80104,484.17294 318.52506,483.17466 C 298.47109,483.17466 282.19542,466.89876 282.19542,446.84451 C 282.19542,441.44945 249.60884,441.0386 249.60884,446.84451 C 249.60884,466.89876 233.33317,483.17466 213.2792,483.17466 C 207.39917,482.94968 206.22358,519.51869 213.2792,519.72501 C 233.33317,519.72501 249.60884,536.00091 249.60884,556.05516 z"
       sodipodi:nodetypes="ccccssccc" />
    <g
       id="g3292">
      <rect
         ry="16.450199"
         rx="16.450203"
         y="372.24924"
         x="437.39334"
         height="29.558952"
         width="37.428303"
         id="rect3288"
         style="opacity:1;fill:#d1d1d1;fill-opacity:1;fill-rule:evenodd;stroke:#6d6d6d;stroke-width:1;stroke-linecap:round;stroke-linejoin:round;stroke-miterlimit:4;stroke-dasharray:none;stroke-opacity:1" />
      <path
         transform="matrix(0,1.1259413,1.1259413,0,20.719223,57.395722)"
         d="M 300.92577,381.6729 L 292.76215,395.81271 L 284.59852,381.6729 L 300.92577,381.6729 z"
         inkscape:randomized="0"
         inkscape:rounded="0"
         inkscape:flatsided="true"
         sodipodi:arg2="0.52359878"
         sodipodi:arg1="-0.52359878"
         sodipodi:r2="4.7132702"
         sodipodi:r1="9.4265404"
         sodipodi:cy="386.38617"
         sodipodi:cx="292.76215"
         sodipodi:sides="3"
         id="path3290"
         style="opacity:1;fill:#717171;fill-opacity:1;fill-rule:evenodd;stroke:none;stroke-width:3;stroke-linecap:round;stroke-linejoin:round;stroke-miterlimit:4;stroke-dasharray:none;stroke-opacity:1"
         sodipodi:type="star" />
    </g>
    <g
       id="g3296"
       transform="matrix(-1,0,0,1,757.22326,0)">
      <rect
         style="opacity:1;fill:#d1d1d1;fill-opacity:1;fill-rule:evenodd;stroke:#6d6d6d;stroke-width:1;stroke-linecap:round;stroke-linejoin:round;stroke-miterlimit:4;stroke-dasharray:none;stroke-opacity:1"
         id="rect3298"
         width="37.428303"
         height="29.558952"
         x="437.39334"
         y="372.24924"
         rx="16.450203"
         ry="16.450199" />
      <path
         sodipodi:type="star"
         style="opacity:1;fill:#717171;fill-opacity:1;fill-rule:evenodd;stroke:none;stroke-width:3;stroke-linecap:round;stroke-linejoin:round;stroke-miterlimit:4;stroke-dasharray:none;stroke-opacity:1"
         id="path3300"
         sodipodi:sides="3"
         sodipodi:cx="292.76215"
         sodipodi:cy="386.38617"
         sodipodi:r1="9.4265404"
         sodipodi:r2="4.7132702"
         sodipodi:arg1="-0.52359878"
         sodipodi:arg2="0.52359878"
         inkscape:flatsided="true"
         inkscape:rounded="0"
         inkscape:randomized="0"
         d="M 300.92577,381.6729 L 292.76215,395.81271 L 284.59852,381.6729 L 300.92577,381.6729 z"
         transform="matrix(0,1.1259413,1.1259413,0,20.719223,57.395722)" />
    </g>
    <path
       transform="matrix(1.1370745,0,0,1.1370745,-54.470362,-59.078494)"
       d="M 418.96601,392.55499 A 37.527016,37.527016 0 1 1 343.91198,392.55499 A 37.527016,37.527016 0 1 1 418.96601,392.55499 z"
       sodipodi:ry="37.527016"
       sodipodi:rx="37.527016"
       sodipodi:cy="392.55499"
       sodipodi:cx="381.439"
       id="path3304"
       style="opacity:1;fill:#00ff00;fill-opacity:1;fill-rule:evenodd;stroke:#000000;stroke-width:0.87944984;stroke-linecap:round;stroke-linejoin:round;stroke-miterlimit:4;stroke-dasharray:none;stroke-opacity:1"
       sodipodi:type="arc" />
    <path
       sodipodi:type="arc"
       style="opacity:1;fill:#979797;fill-opacity:1;fill-rule:evenodd;stroke:#000000;stroke-width:1.03515577;stroke-linecap:round;stroke-linejoin:round;stroke-miterlimit:4;stroke-dasharray:none;stroke-opacity:1"
       id="path3302"
       sodipodi:cx="381.439"
       sodipodi:cy="392.55499"
       sodipodi:rx="37.527016"
       sodipodi:ry="37.527016"
       d="M 418.96601,392.55499 A 37.527016,37.527016 0 1 1 343.91198,392.55499 A 37.527016,37.527016 0 1 1 418.96601,392.55499 z"
       transform="matrix(0.9660382,0,0,0.9660382,10.769546,8.0626522)" />
    <path
       transform="matrix(0.719677,0,0,0.719677,104.74129,99.730104)"
       d="M 418.96601,392.55499 A 37.527016,37.527016 0 1 1 343.91198,392.55499 A 37.527016,37.527016 0 1 1 418.96601,392.55499 z"
       sodipodi:ry="37.527016"
       sodipodi:rx="37.527016"
       sodipodi:cy="392.55499"
       sodipodi:cx="381.439"
       id="path3310"
       style="opacity:1;fill:#a7a7a7;fill-opacity:1;fill-rule:evenodd;stroke:none;stroke-width:1.48899412;stroke-linecap:round;stroke-linejoin:round;stroke-miterlimit:4;stroke-dasharray:none;stroke-opacity:1"
       sodipodi:type="arc" />
    <path
       style="fill:#00ff00;fill-opacity:1;fill-rule:evenodd;stroke:none;stroke-width:0.25pt;stroke-linecap:butt;stroke-linejoin:miter;stroke-opacity:1"
       d="M 344.94011,404.6356 C 356.55517,375.84775 372.81663,358.36941 399.68843,354.25686 L 402.77285,356.8272 C 380.82322,364.71715 359.94283,386.25936 349.05266,410.29035 L 344.94011,404.6356 z"
       id="path3306"
       sodipodi:nodetypes="ccccc" />
    <path
       sodipodi:nodetypes="ccccc"
       id="path3308"
       d="M 411.22775,403.33198 C 400.48541,376.70717 385.44579,360.5421 360.59307,356.73856 L 357.7404,359.11577 C 378.0408,366.41289 397.35229,386.33648 407.42421,408.56185 L 411.22775,403.33198 z"
       style="fill:#00ff00;fill-opacity:1;fill-rule:evenodd;stroke:none;stroke-width:0.25pt;stroke-linecap:butt;stroke-linejoin:miter;stroke-opacity:1" />
    <text
       xml:space="preserve"
       style="font-size:10.93347359px;font-style:normal;font-variant:normal;font-weight:normal;font-stretch:normal;text-align:center;line-height:-200%;writing-mode:lr-tb;text-anchor:middle;fill:#000000;fill-opacity:1;stroke:none;stroke-width:3pt;stroke-linecap:butt;stroke-linejoin:miter;stroke-opacity:1;font-family:DejaVu Sans Mono;-inkscape-font-specification:DejaVu Sans Mono"
       x="472.78644"
       y="364.41809"
       id="text3312"
       sodipodi:linespacing="-200%"><tspan
         sodipodi:role="line"
         id="tspan3314"
         x="472.78644"
         y="364.41809">START</tspan></text>
    <path
       d="M 542.19462,503.98223 C 542.19462,535.38796 516.70589,560.87669 485.30015,560.87669 C 453.89441,560.87669 428.40568,535.38796 428.40568,503.98223 C 428.40568,472.57648 453.89441,447.08775 485.30015,447.08775 C 516.70589,447.08775 542.19462,472.57648 542.19462,503.98223 z M 533.89089,503.98222 C 533.89089,530.80431 512.12223,552.57296 485.30015,552.57296 C 458.47806,552.57296 436.7094,530.80431 436.7094,503.98222 C 436.7094,477.16013 458.47806,455.39148 485.30015,455.39148 C 512.12223,455.39148 533.89089,477.16013 533.89089,503.98222 z"
       style="fill:#dfdfdf;fill-opacity:1;fill-rule:evenodd;stroke:none;stroke-width:2.06702876;stroke-linecap:round;stroke-linejoin:round;stroke-miterlimit:4;stroke-opacity:1"
       id="path3348" />
    <text
       xml:space="preserve"
       style="font-size:10.93347359px;font-style:normal;font-variant:normal;font-weight:normal;font-stretch:normal;text-align:center;line-height:100%;writing-mode:lr-tb;text-anchor:middle;fill:#000000;fill-opacity:1;stroke:none;stroke-width:3pt;stroke-linecap:butt;stroke-linejoin:miter;stroke-opacity:1;font-family:DejaVu Sans Mono;-inkscape-font-specification:DejaVu Sans Mono"
       x="284.78766"
       y="362.92157"
       id="text3316"
       sodipodi:linespacing="100%"><tspan
         sodipodi:role="line"
         id="tspan3318"
         x="284.78766"
         y="362.92157">BACK</tspan></text>
    <path
       id="path3350"
       style="fill:#dfdfdf;fill-opacity:1;fill-rule:evenodd;stroke:none;stroke-width:2.06702876;stroke-linecap:round;stroke-linejoin:round;stroke-miterlimit:4;stroke-opacity:1"
       d="M 218.67656,375.05998 C 218.67656,405.28811 194.14356,429.82111 163.91542,429.82111 C 133.68728,429.82111 109.15428,405.28811 109.15428,375.05998 C 109.15428,344.83183 133.68728,320.29883 163.91542,320.29883 C 194.14356,320.29883 218.67656,344.83183 218.67656,375.05998 z M 210.68419,375.05997 C 210.68419,400.87633 189.73177,421.82874 163.91542,421.82874 C 138.09906,421.82874 117.14664,400.87633 117.14664,375.05997 C 117.14664,349.24361 138.09906,328.2912 163.91542,328.2912 C 189.73177,328.2912 210.68419,349.24361 210.68419,375.05997 z" />
    <path
       id="path3320"
       style="fill:none;fill-opacity:1;fill-rule:evenodd;stroke:#969696;stroke-width:0.81337047;stroke-linecap:round;stroke-linejoin:round;stroke-miterlimit:4;stroke-opacity:1"
       d="M 379.23104,433.61031 C 391.84679,433.61031 403.58355,428.83839 411.56194,420.32531 C 418.67644,412.73401 427.24865,406.41041 434.19669,406.41041 C 441.14473,406.41041 433.66336,406.41041 433.66336,406.41041 C 433.66336,406.41041 461.60758,406.41041 461.60758,406.41041 C 472.06124,406.41041 480.54536,397.92629 480.54536,387.3792 C 480.54536,376.83212 472.06124,368.348 461.60758,368.348 C 461.60758,368.348 433.66336,368.348 433.66336,368.348 C 433.66336,368.348 441.14473,368.348 434.19669,368.348 C 427.24865,368.348 418.67644,362.0244 411.56194,354.4331 C 403.58355,345.92002 391.82365,341.1481 379.23104,341.1481 C 366.63844,341.1481 354.87854,345.92002 346.90015,354.4331 C 339.78565,362.0244 331.21344,368.348 324.2654,368.348 C 317.31736,368.348 324.79873,368.348 324.79873,368.348 C 324.79873,368.348 296.85451,368.348 296.85451,368.348 C 286.40085,368.348 277.91673,376.83212 277.91673,387.3792 C 277.91673,397.92629 286.40085,406.41041 296.85451,406.41041 C 296.85451,406.41041 324.79873,406.41041 324.79873,406.41041 C 324.79873,406.41041 317.31736,406.41041 324.2654,406.41041 C 331.21344,406.41041 339.78565,412.73401 346.90015,420.32531 C 354.87854,428.83839 366.6153,433.61031 379.23104,433.61031 z"
       sodipodi:nodetypes="cssccsccsscssccsccssc" />
    <path
       id="path3341"
       style="fill:#dfdfdf;fill-opacity:1;fill-rule:evenodd;stroke:none;stroke-width:2.06702876;stroke-linecap:round;stroke-linejoin:round;stroke-miterlimit:4;stroke-opacity:1"
       d="M 338.14038,501.44979 C 338.14038,541.32529 305.77763,573.68804 265.90212,573.68804 C 226.0266,573.68804 193.66386,541.32529 193.66386,501.44979 C 193.66386,461.57427 226.0266,429.21152 265.90212,429.21152 C 305.77763,429.21152 338.14038,461.57427 338.14038,501.44979 z M 327.59723,501.44978 C 327.59723,535.50548 299.95781,563.14489 265.90212,563.14489 C 231.84642,563.14489 204.207,535.50548 204.207,501.44978 C 204.207,467.39408 231.84642,439.75467 265.90212,439.75467 C 299.95781,439.75467 327.59723,467.39408 327.59723,501.44978 z" />
    <g
       transform="translate(-321.84517,-119.25308)"
       id="g3233">
      <path
         sodipodi:type="arc"
         style="opacity:1;fill:#4d4d4d;fill-opacity:1;fill-rule:evenodd;stroke:#000000;stroke-width:3;stroke-linecap:round;stroke-linejoin:round;stroke-miterlimit:4;stroke-dasharray:none;stroke-opacity:1"
         id="path3235"
         sodipodi:cx="491.28583"
         sodipodi:cy="494.31305"
         sodipodi:rx="49.266716"
         sodipodi:ry="49.266716"
         d="M 540.55254,494.31305 A 49.266716,49.266716 0 1 1 442.01911,494.31305 A 49.266716,49.266716 0 1 1 540.55254,494.31305 z"
         transform="translate(-5.525239,0)" />
      <path
         transform="matrix(0.7102804,0,0,0.7102804,136.8099,143.21219)"
         d="M 540.55254,494.31305 A 49.266716,49.266716 0 1 1 442.01911,494.31305 A 49.266716,49.266716 0 1 1 540.55254,494.31305 z"
         sodipodi:ry="49.266716"
         sodipodi:rx="49.266716"
         sodipodi:cy="494.31305"
         sodipodi:cx="491.28583"
         id="path3237"
         style="opacity:1;fill:#333333;fill-opacity:1;fill-rule:evenodd;stroke:none;stroke-width:4.22368431;stroke-linecap:round;stroke-linejoin:round;stroke-miterlimit:4;stroke-dasharray:none;stroke-opacity:1"
         sodipodi:type="arc" />
      <g
         id="g3239"
         transform="matrix(1.0746269,0,0,1.0746269,-36.250788,-36.889032)">
        <path
           transform="matrix(8.4112218e-2,0,0,8.4112218e-2,471.14277,452.73529)"
           d="M 540.55254,494.31305 A 49.266716,49.266716 0 1 1 442.01911,494.31305 A 49.266716,49.266716 0 1 1 540.55254,494.31305 z"
           sodipodi:ry="49.266716"
           sodipodi:rx="49.266716"
           sodipodi:cy="494.31305"
           sodipodi:cx="491.28583"
           id="path3241"
           style="fill:#9b9b9b;fill-opacity:1;fill-rule:evenodd;stroke:none;stroke-width:26.74999046;stroke-linecap:round;stroke-linejoin:round;stroke-miterlimit:4;stroke-dasharray:none;stroke-opacity:1"
           sodipodi:type="arc" />
        <path
           sodipodi:type="arc"
           style="fill:#9b9b9b;fill-opacity:1;fill-rule:evenodd;stroke:none;stroke-width:26.74999046;stroke-linecap:round;stroke-linejoin:round;stroke-miterlimit:4;stroke-dasharray:none;stroke-opacity:1"
           id="path3243"
           sodipodi:cx="491.28583"
           sodipodi:cy="494.31305"
           sodipodi:rx="49.266716"
           sodipodi:ry="49.266716"
           d="M 540.55254,494.31305 A 49.266716,49.266716 0 1 1 442.01911,494.31305 A 49.266716,49.266716 0 1 1 540.55254,494.31305 z"
           transform="matrix(8.4112218e-2,0,0,8.4112218e-2,417.73213,452.73529)" />
        <path
           sodipodi:type="arc"
           style="fill:#9b9b9b;fill-opacity:1;fill-rule:evenodd;stroke:none;stroke-width:26.74999046;stroke-linecap:round;stroke-linejoin:round;stroke-miterlimit:4;stroke-dasharray:none;stroke-opacity:1"
           id="path3245"
           sodipodi:cx="491.28583"
           sodipodi:cy="494.31305"
           sodipodi:rx="49.266716"
           sodipodi:ry="49.266716"
           d="M 540.55254,494.31305 A 49.266716,49.266716 0 1 1 442.01911,494.31305 A 49.266716,49.266716 0 1 1 540.55254,494.31305 z"
           transform="matrix(0,8.4112218e-2,-8.4112218e-2,0,527.33836,479.69524)" />
        <path
           transform="matrix(0,8.4112218e-2,-8.4112218e-2,0,527.33836,426.2846)"
           d="M 540.55254,494.31305 A 49.266716,49.266716 0 1 1 442.01911,494.31305 A 49.266716,49.266716 0 1 1 540.55254,494.31305 z"
           sodipodi:ry="49.266716"
           sodipodi:rx="49.266716"
           sodipodi:cy="494.31305"
           sodipodi:cx="491.28583"
           id="path3247"
           style="fill:#9b9b9b;fill-opacity:1;fill-rule:evenodd;stroke:none;stroke-width:26.74999046;stroke-linecap:round;stroke-linejoin:round;stroke-miterlimit:4;stroke-dasharray:none;stroke-opacity:1"
           sodipodi:type="arc" />
      </g>
    </g>
    <g
       id="g3224"
       transform="translate(-0.4604366,9.6691683)">
      <path
         transform="translate(-5.525239,0)"
         d="M 540.55254,494.31305 A 49.266716,49.266716 0 1 1 442.01911,494.31305 A 49.266716,49.266716 0 1 1 540.55254,494.31305 z"
         sodipodi:ry="49.266716"
         sodipodi:rx="49.266716"
         sodipodi:cy="494.31305"
         sodipodi:cx="491.28583"
         id="path3196"
         style="opacity:1;fill:#4d4d4d;fill-opacity:1;fill-rule:evenodd;stroke:#000000;stroke-width:3;stroke-linecap:round;stroke-linejoin:round;stroke-miterlimit:4;stroke-dasharray:none;stroke-opacity:1"
         sodipodi:type="arc" />
      <path
         sodipodi:type="arc"
         style="opacity:1;fill:#333333;fill-opacity:1;fill-rule:evenodd;stroke:none;stroke-width:4.22368431;stroke-linecap:round;stroke-linejoin:round;stroke-miterlimit:4;stroke-dasharray:none;stroke-opacity:1"
         id="path3198"
         sodipodi:cx="491.28583"
         sodipodi:cy="494.31305"
         sodipodi:rx="49.266716"
         sodipodi:ry="49.266716"
         d="M 540.55254,494.31305 A 49.266716,49.266716 0 1 1 442.01911,494.31305 A 49.266716,49.266716 0 1 1 540.55254,494.31305 z"
         transform="matrix(0.7102804,0,0,0.7102804,136.8099,143.21219)" />
      <g
         transform="matrix(1.0746269,0,0,1.0746269,-36.250788,-36.889032)"
         id="g3218">
        <path
           sodipodi:type="arc"
           style="fill:#9b9b9b;fill-opacity:1;fill-rule:evenodd;stroke:none;stroke-width:26.74999046;stroke-linecap:round;stroke-linejoin:round;stroke-miterlimit:4;stroke-dasharray:none;stroke-opacity:1"
           id="path3200"
           sodipodi:cx="491.28583"
           sodipodi:cy="494.31305"
           sodipodi:rx="49.266716"
           sodipodi:ry="49.266716"
           d="M 540.55254,494.31305 A 49.266716,49.266716 0 1 1 442.01911,494.31305 A 49.266716,49.266716 0 1 1 540.55254,494.31305 z"
           transform="matrix(8.4112218e-2,0,0,8.4112218e-2,471.14277,452.73529)" />
        <path
           transform="matrix(8.4112218e-2,0,0,8.4112218e-2,417.73213,452.73529)"
           d="M 540.55254,494.31305 A 49.266716,49.266716 0 1 1 442.01911,494.31305 A 49.266716,49.266716 0 1 1 540.55254,494.31305 z"
           sodipodi:ry="49.266716"
           sodipodi:rx="49.266716"
           sodipodi:cy="494.31305"
           sodipodi:cx="491.28583"
           id="path3202"
           style="fill:#9b9b9b;fill-opacity:1;fill-rule:evenodd;stroke:none;stroke-width:26.74999046;stroke-linecap:round;stroke-linejoin:round;stroke-miterlimit:4;stroke-dasharray:none;stroke-opacity:1"
           sodipodi:type="arc" />
        <path
           transform="matrix(0,8.4112218e-2,-8.4112218e-2,0,527.33836,479.69524)"
           d="M 540.55254,494.31305 A 49.266716,49.266716 0 1 1 442.01911,494.31305 A 49.266716,49.266716 0 1 1 540.55254,494.31305 z"
           sodipodi:ry="49.266716"
           sodipodi:rx="49.266716"
           sodipodi:cy="494.31305"
           sodipodi:cx="491.28583"
           id="path3210"
           style="fill:#9b9b9b;fill-opacity:1;fill-rule:evenodd;stroke:none;stroke-width:26.74999046;stroke-linecap:round;stroke-linejoin:round;stroke-miterlimit:4;stroke-dasharray:none;stroke-opacity:1"
           sodipodi:type="arc" />
        <path
           sodipodi:type="arc"
           style="fill:#9b9b9b;fill-opacity:1;fill-rule:evenodd;stroke:none;stroke-width:26.74999046;stroke-linecap:round;stroke-linejoin:round;stroke-miterlimit:4;stroke-dasharray:none;stroke-opacity:1"
           id="path3212"
           sodipodi:cx="491.28583"
           sodipodi:cy="494.31305"
           sodipodi:rx="49.266716"
           sodipodi:ry="49.266716"
           d="M 540.55254,494.31305 A 49.266716,49.266716 0 1 1 442.01911,494.31305 A 49.266716,49.266716 0 1 1 540.55254,494.31305 z"
           transform="matrix(0,8.4112218e-2,-8.4112218e-2,0,527.33836,426.2846)" />
      </g>
    </g>
    <path
       transform="matrix(1.2631579,0,0,1.2631579,-32.710591,-100.04633)"
       d="M 565.68628,384.47525 A 28.661438,28.661438 0 1 1 508.3634,384.47525 A 28.661438,28.661438 0 1 1 565.68628,384.47525 z"
       sodipodi:ry="28.661438"
       sodipodi:rx="28.661438"
       sodipodi:cy="384.47525"
       sodipodi:cx="537.02484"
       id="path3405"
       style="opacity:1;fill:#dadada;fill-opacity:1;fill-rule:evenodd;stroke:none;stroke-width:1;stroke-linecap:round;stroke-linejoin:round;stroke-miterlimit:4;stroke-dasharray:none;stroke-opacity:1"
       sodipodi:type="arc" />
    <path
       sodipodi:nodetypes="cssssscsscscsc"
       id="path3363"
       d="M 692.40625,795.6875 C 729.24632,796.78087 745.21397,776.84954 748.8125,678.25 C 752.58374,574.91798 685.51396,378.56055 665.84375,329.03125 C 646.1735,279.50196 547.13046,253.20593 502.1875,281.53125 C 465.20101,304.842 424.68118,307.90625 375.15625,307.90625 C 325.63133,307.90625 285.14275,304.842 248.15625,281.53125 C 235.51605,273.56475 218.57513,269.89652 200.34375,269.875 C 153.75246,269.82 98.606739,293.43208 84.46875,329.03125 C 64.798509,378.56054 -2.2712417,574.91797 1.5,678.25 C 5.0785642,776.30266 20.906856,796.56763 57.3125,795.70312 C 141.78831,786.65213 150.45828,738.83858 207.40625,694.09375 C 260.20364,652.61006 297.18742,648.83525 374.875,650.34375 C 452.56257,648.83527 489.51511,652.61009 542.3125,694.09375 C 599.26048,738.83855 607.93044,786.63651 692.40625,795.6875 z"
       style="fill:none;fill-opacity:1;fill-rule:evenodd;stroke:#000000;stroke-width:3;stroke-linecap:butt;stroke-linejoin:miter;stroke-miterlimit:4;stroke-dasharray:none;stroke-opacity:1" />
    <path
       sodipodi:type="arc"
       style="opacity:1;fill:#dadada;fill-opacity:1;fill-rule:evenodd;stroke:none;stroke-width:1;stroke-linecap:round;stroke-linejoin:round;stroke-miterlimit:4;stroke-dasharray:none;stroke-opacity:1"
       id="path3403"
       sodipodi:cx="537.02484"
       sodipodi:cy="384.47525"
       sodipodi:rx="28.661438"
       sodipodi:ry="28.661438"
       d="M 565.68628,384.47525 A 28.661438,28.661438 0 1 1 508.3634,384.47525 A 28.661438,28.661438 0 1 1 565.68628,384.47525 z"
       transform="matrix(1.2631579,0,0,1.2631579,-141.69948,-100.04633)" />
    <path
       sodipodi:type="arc"
       style="opacity:1;fill:#0000ff;fill-opacity:1;fill-rule:evenodd;stroke:#000000;stroke-width:1;stroke-linecap:round;stroke-linejoin:round;stroke-miterlimit:4;stroke-dasharray:none;stroke-opacity:1"
       id="path3367"
       sodipodi:cx="536.64771"
       sodipodi:cy="382.96677"
       sodipodi:rx="25.267321"
       sodipodi:ry="25.267321"
       d="M 561.91503,382.96677 A 25.267321,25.267321 0 1 1 511.38038,382.96677 A 25.267321,25.267321 0 1 1 561.91503,382.96677 z" />
    <path
       sodipodi:type="arc"
       style="opacity:1;fill:#dadada;fill-opacity:1;fill-rule:evenodd;stroke:none;stroke-width:1;stroke-linecap:round;stroke-linejoin:round;stroke-miterlimit:4;stroke-dasharray:none;stroke-opacity:1"
       id="path3407"
       sodipodi:cx="537.02484"
       sodipodi:cy="384.47525"
       sodipodi:rx="28.661438"
       sodipodi:ry="28.661438"
       d="M 565.68628,384.47525 A 28.661438,28.661438 0 1 1 508.3634,384.47525 A 28.661438,28.661438 0 1 1 565.68628,384.47525 z"
       transform="matrix(1.2631579,0,0,1.2631579,-87.393598,-152.08947)" />
    <path
       d="M 561.91503,382.96677 A 25.267321,25.267321 0 1 1 511.38038,382.96677 A 25.267321,25.267321 0 1 1 561.91503,382.96677 z"
       sodipodi:ry="25.267321"
       sodipodi:rx="25.267321"
       sodipodi:cy="382.96677"
       sodipodi:cx="536.64771"
       id="path3369"
       style="opacity:1;fill:#ff0000;fill-opacity:1;fill-rule:evenodd;stroke:#000000;stroke-width:1;stroke-linecap:round;stroke-linejoin:round;stroke-miterlimit:4;stroke-dasharray:none;stroke-opacity:1"
       sodipodi:type="arc"
       transform="translate(109.36601,0)" />
    <path
       d="M 561.91503,382.96677 A 25.267321,25.267321 0 1 1 511.38038,382.96677 A 25.267321,25.267321 0 1 1 561.91503,382.96677 z"
       sodipodi:ry="25.267321"
       sodipodi:rx="25.267321"
       sodipodi:cy="382.96677"
       sodipodi:cx="536.64771"
       id="path3371"
       style="fill:#ffff00;fill-opacity:1;fill-rule:evenodd;stroke:#000000;stroke-width:1;stroke-linecap:round;stroke-linejoin:round;stroke-miterlimit:4;stroke-dasharray:none;stroke-opacity:1"
       sodipodi:type="arc"
       transform="matrix(-1,0,0,-1,1127.9784,711.25052)" />
    <path
       transform="matrix(1.2631579,0,0,1.2631579,-87.393598,-44.609078)"
       d="M 565.68628,384.47525 A 28.661438,28.661438 0 1 1 508.3634,384.47525 A 28.661438,28.661438 0 1 1 565.68628,384.47525 z"
       sodipodi:ry="28.661438"
       sodipodi:rx="28.661438"
       sodipodi:cy="384.47525"
       sodipodi:cx="537.02484"
       id="path3409"
       style="opacity:1;fill:#dadada;fill-opacity:1;fill-rule:evenodd;stroke:none;stroke-width:1;stroke-linecap:round;stroke-linejoin:round;stroke-miterlimit:4;stroke-dasharray:none;stroke-opacity:1"
       sodipodi:type="arc" />
    <path
       transform="matrix(-1,0,0,-1,1127.9784,820.61655)"
       sodipodi:type="arc"
       style="fill:#00ff00;fill-opacity:1;fill-rule:evenodd;stroke:#000000;stroke-width:1;stroke-linecap:round;stroke-linejoin:round;stroke-miterlimit:4;stroke-dasharray:none;stroke-opacity:1"
       id="path3373"
       sodipodi:cx="536.64771"
       sodipodi:cy="382.96677"
       sodipodi:rx="25.267321"
       sodipodi:ry="25.267321"
       d="M 561.91503,382.96677 A 25.267321,25.267321 0 1 1 511.38038,382.96677 A 25.267321,25.267321 0 1 1 561.91503,382.96677 z" />
    <text
       xml:space="preserve"
       style="font-size:31.15677643px;font-style:normal;font-variant:normal;font-weight:bold;font-stretch:normal;text-align:center;line-height:-200%;writing-mode:lr-tb;text-anchor:middle;fill:#000000;fill-opacity:1;stroke:none;stroke-width:3pt;stroke-linecap:butt;stroke-linejoin:miter;stroke-opacity:1;font-family:DejaVu Sans Mono;-inkscape-font-specification:DejaVu Sans Mono Bold"
       x="491.71799"
       y="429.30984"
       id="text3381"
       sodipodi:linespacing="-200%"
       transform="scale(1.0913562,0.9162912)"><tspan
         sodipodi:role="line"
         id="tspan3383"
         x="491.71799"
         y="429.30984">X</tspan></text>
    <text
       xml:space="preserve"
       style="font-size:31.15677452px;font-style:normal;font-variant:normal;font-weight:bold;font-stretch:normal;text-align:center;line-height:-200%;writing-mode:lr-tb;text-anchor:middle;fill:#000000;fill-opacity:1;stroke:none;stroke-width:3pt;stroke-linecap:butt;stroke-linejoin:miter;stroke-opacity:1;font-family:DejaVu Sans Mono;-inkscape-font-specification:DejaVu Sans Mono Bold"
       x="541.82349"
       y="369.6312"
       id="text3385"
       sodipodi:linespacing="-200%"
       transform="scale(1.0913562,0.9162912)"><tspan
         sodipodi:role="line"
         id="tspan3387"
         x="541.82349"
         y="369.6312">Y</tspan></text>
    <text
       xml:space="preserve"
       style="font-size:31.15677452px;font-style:normal;font-variant:normal;font-weight:bold;font-stretch:normal;text-align:center;line-height:-200%;writing-mode:lr-tb;text-anchor:middle;fill:#000000;fill-opacity:1;stroke:none;stroke-width:3pt;stroke-linecap:butt;stroke-linejoin:miter;stroke-opacity:1;font-family:DejaVu Sans Mono;-inkscape-font-specification:DejaVu Sans Mono Bold"
       x="541.82349"
       y="488.98849"
       id="text3389"
       sodipodi:linespacing="-200%"
       transform="scale(1.0913562,0.9162912)"><tspan
         sodipodi:role="line"
         id="tspan3391"
         x="541.82349"
         y="488.98849">A</tspan></text>
    <text
       xml:space="preserve"
       style="font-size:31.15677452px;font-style:normal;font-variant:normal;font-weight:bold;font-stretch:normal;text-align:center;line-height:-200%;writing-mode:lr-tb;text-anchor:middle;fill:#000000;fill-opacity:1;stroke:none;stroke-width:3pt;stroke-linecap:butt;stroke-linejoin:miter;stroke-opacity:1;font-family:DejaVu Sans Mono;-inkscape-font-specification:DejaVu Sans Mono Bold"
       x="591.54114"
       y="429.32504"
       id="text3393"
       sodipodi:linespacing="-200%"
       transform="scale(1.0913562,0.9162912)"><tspan
         sodipodi:role="line"
         id="tspan3395"
         x="591.54114"
         y="429.32504">B</tspan></text>
    <path
       style="fill:#ffffff;fill-opacity:0.48677243;fill-rule:evenodd;stroke:none;stroke-width:1;stroke-linecap:round;stroke-linejoin:round;stroke-miterlimit:4;stroke-opacity:1"
       d="M 553.83094,369.19255 C 553.83094,375.08056 546.1101,370.82393 536.59692,370.82393 C 527.08374,370.82393 519.3629,375.08056 519.3629,369.19255 C 519.3629,363.30455 527.08374,358.52587 536.59692,358.52587 C 546.1101,358.52587 553.83094,363.30455 553.83094,369.19255 z"
       id="path3433"
       sodipodi:nodetypes="csssc" />
    <path
       sodipodi:nodetypes="csssc"
       id="path3436"
       d="M 609.04671,315.31534 C 609.04671,321.20335 601.32587,316.94672 591.81269,316.94672 C 582.29951,316.94672 574.57867,321.20335 574.57867,315.31534 C 574.57867,309.42734 582.29951,304.64866 591.81269,304.64866 C 601.32587,304.64866 609.04671,309.42734 609.04671,315.31534 z"
       style="fill:#ffffff;fill-opacity:0.48677243;fill-rule:evenodd;stroke:none;stroke-width:1;stroke-linecap:round;stroke-linejoin:round;stroke-miterlimit:4;stroke-opacity:1" />
    <path
       style="fill:#ffffff;fill-opacity:0.48677243;fill-rule:evenodd;stroke:none;stroke-width:1;stroke-linecap:round;stroke-linejoin:round;stroke-miterlimit:4;stroke-opacity:1"
       d="M 609.04671,423.73903 C 609.04671,429.62704 601.32587,425.37041 591.81269,425.37041 C 582.29951,425.37041 574.57867,429.62704 574.57867,423.73903 C 574.57867,417.85103 582.29951,413.07235 591.81269,413.07235 C 601.32587,413.07235 609.04671,417.85103 609.04671,423.73903 z"
       id="path3438"
       sodipodi:nodetypes="csssc" />
    <path
       sodipodi:nodetypes="csssc"
       id="path3440"
       d="M 663.92784,369.52718 C 663.92784,375.41519 656.207,371.15856 646.69382,371.15856 C 637.18064,371.15856 629.4598,375.41519 629.4598,369.52718 C 629.4598,363.63918 637.18064,358.8605 646.69382,358.8605 C 656.207,358.8605 663.92784,363.63918 663.92784,369.52718 z"
       style="fill:#ffffff;fill-opacity:0.48677243;fill-rule:evenodd;stroke:none;stroke-width:1;stroke-linecap:round;stroke-linejoin:round;stroke-miterlimit:4;stroke-opacity:1" />
    <path
       sodipodi:nodetypes="csssc"
       id="path3456"
       d="M 612.51723,341.12116 C 612.51723,334.58641 602.05531,345.61344 591.49718,345.61344 C 580.93905,345.61344 570.47713,334.90191 570.47713,341.43666 C 570.47713,347.97141 580.93905,352.95949 591.49718,352.95949 C 602.05531,352.95949 612.51723,347.65591 612.51723,341.12116 z"
       style="fill:#000000;fill-opacity:0.26455024;fill-rule:evenodd;stroke:none;stroke-width:1;stroke-linecap:round;stroke-linejoin:round;stroke-miterlimit:4;stroke-opacity:1" />
    <path
       style="fill:#000000;fill-opacity:0.26455024;fill-rule:evenodd;stroke:none;stroke-width:1;stroke-linecap:round;stroke-linejoin:round;stroke-miterlimit:4;stroke-opacity:1"
       d="M 612.51723,450.91606 C 612.51723,444.38131 602.05531,455.40834 591.49718,455.40834 C 580.93905,455.40834 570.47713,444.69681 570.47713,451.23156 C 570.47713,457.76631 580.93905,462.75439 591.49718,462.75439 C 602.05531,462.75439 612.51723,457.45081 612.51723,450.91606 z"
       id="path3460"
       sodipodi:nodetypes="csssc" />
    <path
       sodipodi:nodetypes="csssc"
       id="path3462"
       d="M 557.61978,396.01861 C 557.61978,389.48386 547.15786,400.51089 536.59973,400.51089 C 526.0416,400.51089 515.57968,389.79936 515.57968,396.33411 C 515.57968,402.86886 526.0416,407.85694 536.59973,407.85694 C 547.15786,407.85694 557.61978,402.55336 557.61978,396.01861 z"
       style="fill:#000000;fill-opacity:0.26455024;fill-rule:evenodd;stroke:none;stroke-width:1;stroke-linecap:round;stroke-linejoin:round;stroke-miterlimit:4;stroke-opacity:1" />
    <path
       style="fill:#000000;fill-opacity:0.26455024;fill-rule:evenodd;stroke:none;stroke-width:1;stroke-linecap:round;stroke-linejoin:round;stroke-miterlimit:4;stroke-opacity:1"
       d="M 667.73018,396.01861 C 667.73018,389.48386 657.26826,400.51089 646.71013,400.51089 C 636.152,400.51089 625.69008,389.79936 625.69008,396.33411 C 625.69008,402.86886 636.152,407.85694 646.71013,407.85694 C 657.26826,407.85694 667.73018,402.55336 667.73018,396.01861 z"
       id="path3464"
       sodipodi:nodetypes="csssc" />
    <text
       xml:space="preserve"
       style="font-size:19.07241058px;font-style:normal;font-variant:normal;font-weight:normal;font-stretch:normal;text-align:start;line-height:125%;writing-mode:lr-tb;text-anchor:start;fill:#808080;fill-opacity:1;stroke:none;stroke-width:1px;stroke-linecap:butt;stroke-linejoin:miter;stroke-opacity:1;font-family:Arial;-inkscape-font-specification:Arial"
       x="334.25269"
       y="350.16708"
       id="text4416"
       sodipodi:linespacing="125%"><tspan
         sodipodi:role="line"
         id="tspan4418"
         x="334.25269"
         y="350.16708">1</tspan></text>
    <text
       sodipodi:linespacing="125%"
       id="text4420"
       y="350.16708"
       x="412.03046"
       style="font-size:19.07241058px;font-style:normal;font-variant:normal;font-weight:normal;font-stretch:normal;text-align:start;line-height:125%;writing-mode:lr-tb;text-anchor:start;fill:#808080;fill-opacity:1;stroke:none;stroke-width:1px;stroke-linecap:butt;stroke-linejoin:miter;stroke-opacity:1;font-family:Arial;-inkscape-font-specification:Arial"
       xml:space="preserve"><tspan
         y="350.16708"
         x="412.03046"
         id="tspan4422"
         sodipodi:role="line">2</tspan></text>
    <text
       xml:space="preserve"
       style="font-size:40px;font-style:normal;font-weight:normal;fill:#000000;fill-opacity:1;stroke:none;stroke-width:1px;stroke-linecap:butt;stroke-linejoin:miter;stroke-opacity:1;font-family:Bitstream Vera Sans"
       x="337.12454"
       y="424.88486"
       id="text4424"><tspan
         sodipodi:role="line"
         id="tspan4426"
         x="337.12454"
         y="424.88486" /></text>
    <text
       sodipodi:linespacing="125%"
       id="text4428"
       y="436.35324"
       x="334.25269"
       style="font-size:19.07241058px;font-style:normal;font-variant:normal;font-weight:normal;font-stretch:normal;text-align:start;line-height:125%;writing-mode:lr-tb;text-anchor:start;fill:#808080;fill-opacity:1;stroke:none;stroke-width:1px;stroke-linecap:butt;stroke-linejoin:miter;stroke-opacity:1;font-family:Arial;-inkscape-font-specification:Arial"
       xml:space="preserve"><tspan
         y="436.35324"
         x="334.25269"
         id="tspan4430"
         sodipodi:role="line">3</tspan></text>
    <text
       xml:space="preserve"
       style="font-size:19.07241058px;font-style:normal;font-variant:normal;font-weight:normal;font-stretch:normal;text-align:start;line-height:125%;writing-mode:lr-tb;text-anchor:start;fill:#808080;fill-opacity:1;stroke:none;stroke-width:1px;stroke-linecap:butt;stroke-linejoin:miter;stroke-opacity:1;font-family:Arial;-inkscape-font-specification:Arial"
       x="412.03046"
       y="436.35324"
       id="text4432"
       sodipodi:linespacing="125%"><tspan
         sodipodi:role="line"
         id="tspan4434"
         x="412.03046"
         y="436.35324">4</tspan></text>
  </g>
</svg>
